<svg width="69" height="49" fill="none" xmlns="http://www.w3.org/2000/svg"><g clip-path="url('#clip0_12_207')"><path d="M66.782 8.59c-.78-2.93-2.49-5.41-5.42-6.19-5.31-1.42-27.1-1.55-27.1-1.55s-21.79.13-27.1 1.55c-2.93.78-4.63 3.26-5.42 6.19C.322 13.9.262 24.85.262 24.85s.06 10.95 1.48 16.26c.78 2.93 2.49 5.41 5.42 6.19 5.31 1.42 27.1 1.55 27.1 1.55s21.79-.13 27.1-1.55c2.93-.78 4.64-3.26 5.42-6.19 1.42-5.31 1.48-16.26 1.48-16.26s-.06-10.95-1.48-16.26Z" fill="red"/><path d="m45.262 24.85-18-10v20" fill="#fff"/></g><defs><clipPath id="clip0_12_207"><path fill="#fff" transform="translate(.262 .85)" d="M0 0h68v48H0z"/></clipPath></defs></svg>