<svg width="381" height="189" fill="none" xmlns="http://www.w3.org/2000/svg"><path d="M15.762 160.897c-6.875 0-12.5 5.625-12.5 12.5 0 6.25 4.625 11.375 10.5 12.375v-8.75h-3.125v-3.625h3.125v-2.75c0-3.125 1.875-4.875 4.75-4.875 1.375 0 2.75.25 2.75.25v3.125h-1.625c-1.5 0-2 1-2 2v2.25h3.5l-.5 3.625h-2.875v8.75c5.875-1 10.5-6.125 10.5-12.375 0-6.875-5.625-12.5-12.5-12.5ZM64.762 164.175c3.004 0 3.36.011 4.546.065 1.096.05 1.692.234 2.089.387.525.204.9.448 1.293.842.394.393.638.768.842 1.293.154.397.337.993.387 2.089.054 1.186.065 1.543.065 4.546 0 3.004-.011 3.36-.065 4.547-.05 1.096-.233 1.692-.387 2.088-.204.525-.448.9-.841 1.294a3.47 3.47 0 0 1-1.294.841c-.397.154-.993.338-2.089.388-1.186.054-1.541.065-4.546.065-3.005 0-3.36-.011-4.547-.065-1.096-.05-1.692-.234-2.088-.388a3.469 3.469 0 0 1-1.294-.841 3.485 3.485 0 0 1-.841-1.294c-.154-.396-.338-.992-.388-2.088-.053-1.187-.065-1.543-.065-4.547 0-3.003.011-3.36.065-4.546.05-1.096.234-1.692.388-2.089.204-.525.447-.9.841-1.293a3.483 3.483 0 0 1 1.294-.842c.396-.153.992-.337 2.088-.387 1.187-.054 1.543-.065 4.547-.065Zm0-2.028c-3.055 0-3.439.013-4.639.068-1.197.055-2.015.245-2.73.522a5.512 5.512 0 0 0-1.992 1.299 5.516 5.516 0 0 0-1.298 1.993c-.279.715-.469 1.532-.524 2.73-.055 1.2-.067 1.583-.067 4.638 0 3.055.012 3.439.067 4.639.055 1.198.245 2.015.523 2.731.287.74.672 1.368 1.297 1.993a5.506 5.506 0 0 0 1.993 1.297c.715.278 1.533.469 2.731.523 1.2.055 1.584.067 4.639.067s3.439-.012 4.638-.067c1.198-.055 2.015-.245 2.732-.523a5.506 5.506 0 0 0 1.992-1.297 5.516 5.516 0 0 0 1.298-1.993c.277-.715.469-1.533.522-2.731.055-1.2.068-1.584.068-4.639s-.013-3.438-.068-4.638c-.055-1.198-.245-2.015-.522-2.732a5.512 5.512 0 0 0-1.298-1.992 5.522 5.522 0 0 0-1.992-1.298c-.715-.277-1.534-.468-2.732-.522-1.2-.055-1.583-.068-4.638-.068Zm0 5.473a5.777 5.777 0 1 0 0 11.555 5.777 5.777 0 0 0 0-11.555Zm0 9.527a3.75 3.75 0 1 1 0-7.5 3.75 3.75 0 1 1 0 7.5Zm6.005-11.105a1.35 1.35 0 1 0 .001 2.701 1.35 1.35 0 0 0-.001-2.701ZM123.387 162.147h-19.25c-.898 0-1.625.728-1.625 1.625v19.25c0 .898.727 1.625 1.625 1.625h19.25c.897 0 1.625-.727 1.625-1.625v-19.25c0-.897-.728-1.625-1.625-1.625Zm-14.202 19.173h-3.34v-10.738h3.34v10.738Zm-1.668-12.205a1.936 1.936 0 1 1-.003-3.871 1.936 1.936 0 0 1 .003 3.871Zm14.168 12.205h-3.336v-5.221c0-1.245-.021-2.848-1.734-2.848-1.736 0-2.001 1.358-2.001 2.758v5.311h-3.334v-10.738h3.199v1.468h.046c.445-.844 1.534-1.734 3.158-1.734 3.379 0 4.004 2.224 4.004 5.115l-.002 5.889Z" fill="#fff"/></svg>