<svg width="46" height="33" fill="none" xmlns="http://www.w3.org/2000/svg"><g clip-path="url('#clip0_12_56')"><path d="m29.052 24.917-8 8h20v-8h-12Zm-5.88-17.62L5.05 25.417v7.5h7.5l18.12-18.12-7.5-7.5ZM10.89 28.917h-1.84v-1.84l14.12-14.12 1.84 1.84-14.12 14.12Zm25.581-19.92a1.993 1.993 0 0 0 0-2.82l-4.68-4.68a2.002 2.002 0 0 0-2.82 0l-3.66 3.66 7.5 7.5 3.66-3.66Z" fill="#EA1821"/></g><defs><clipPath id="clip0_12_56"><path fill="#fff" transform="translate(.762 .917)" d="M0 0h44.58v32H0z"/></clipPath></defs></svg>