<svg width="45" height="37" fill="none" xmlns="http://www.w3.org/2000/svg"><g clip-path="url('#clip0_12_60')"><path d="m42.553.917-3.34 3.34-3.32-3.34-3.341 3.34-3.34-3.34-3.32 3.34-3.34-3.34-3.34 3.34-3.32-3.34-3.34 3.34-3.34-3.34-3.321 3.34L2.55.917v32c0 2.2 1.8 4 4 4h32.001c2.2 0 4-1.8 4-4v-32Zm-22.001 32H6.55v-12h14v12Zm18 0h-14v-4h14v4Zm0-8h-14v-4h14v4Zm0-8H6.551v-6h32.001v6Z" fill="#EA1821"/></g><defs><clipPath id="clip0_12_60"><path fill="#fff" transform="translate(.262 .917)" d="M0 0h44.58v36H0z"/></clipPath></defs></svg>