<svg width="49" height="59" fill="none" xmlns="http://www.w3.org/2000/svg"><g clip-path="url('#clip0_12_435')"><path d="m48.762 7.618-4.008 4.008-3.984-4.008-4.008 4.008-4.008-4.008-3.984 4.008-4.008-4.008-4.008 4.008-3.984-4.008-4.008 4.008-4.008-4.008-3.984 4.008L.762 7.618v38.4c0 2.64 2.16 4.8 4.8 4.8h38.4c2.64 0 4.8-2.16 4.8-4.8v-38.4Zm-26.4 38.4h-16.8v-14.4h16.8v14.4Zm21.6 0h-16.8v-4.8h16.8v4.8Zm0-9.6h-16.8v-4.8h16.8v4.8Zm0-9.6h-38.4v-7.2h38.4v7.2Z" fill="#EA1821"/></g><defs><clipPath id="clip0_12_435"><path fill="#fff" transform="translate(.762 .368)" d="M0 0h48v58H0z"/></clipPath></defs></svg>