<svg width="49" height="58" fill="none" xmlns="http://www.w3.org/2000/svg"><g clip-path="url('#clip0_12_422')" fill="#EA1821"><path opacity=".3" d="M5.125 20.762v21.622a22.446 22.446 0 0 1 7.637-1.353c2.596 0 5.149.458 7.636 1.353v-21.6a19.604 19.604 0 0 0-7.636-1.571c-2.662 0-5.215.523-7.637 1.549Z"/><path d="m40.035 7.213-10.91 10.909v20.727l10.91-9.818V7.213Z"/><path d="M47.605 17.469a23.059 23.059 0 0 0-3.207-1.331v26.247a22.448 22.448 0 0 0-7.636-1.353c-4.146 0-8.248 1.179-12 3.448v-26.4c-3.535-2.03-7.615-3.23-12-3.23-3.906 0-7.593.96-10.844 2.619-.72.349-1.156 1.112-1.156 1.92v26.356c0 1.266 1.025 2.16 2.182 2.16.349 0 .698-.087 1.047-.262 2.64-1.374 5.607-2.247 8.77-2.247 4.517 0 8.684 1.79 12 4.364 3.317-2.575 7.484-4.364 12-4.364 3.164 0 6.132.873 8.772 2.27.349.174.698.26 1.047.26 1.134 0 2.182-.894 2.182-2.16V19.39c0-.808-.437-1.571-1.157-1.92ZM20.398 42.385a22.448 22.448 0 0 0-7.636-1.353c-2.597 0-5.15.459-7.637 1.353V20.763a19.423 19.423 0 0 1 7.637-1.549c2.618 0 5.214.546 7.636 1.571v21.6Z"/></g><defs><clipPath id="clip0_12_422"><path fill="#fff" transform="translate(.762 .088)" d="M0 0h48v57H0z"/></clipPath></defs></svg>