<svg width="49" height="65" fill="none" xmlns="http://www.w3.org/2000/svg"><g clip-path="url('#clip0_12_440')"><path d="M32.569 31.132V15.23l-7.952-7.952-7.952 7.952v5.301H.762v37.108h47.71V31.132H32.568ZM11.364 52.337H6.063v-5.301h5.301v5.3Zm0-10.602H6.063v-5.301h5.301v5.3Zm0-10.603H6.063v-5.3h5.301v5.3Zm15.903 21.205h-5.3v-5.301h5.3v5.3Zm0-10.602h-5.3v-5.301h5.3v5.3Zm0-10.603h-5.3v-5.3h5.3v5.3Zm0-10.602h-5.3v-5.3h5.3v5.3Zm15.904 31.807H37.87v-5.301h5.3v5.3Zm0-10.602H37.87v-5.301h5.3v5.3Z" fill="#EA1821"/></g><defs><clipPath id="clip0_12_440"><path fill="#fff" transform="translate(.762 .458)" d="M0 0h48v64H0z"/></clipPath></defs></svg>