<svg width="73" height="17" fill="none" xmlns="http://www.w3.org/2000/svg"><g clip-path="url('#clip0_12_212')" fill="#fff"><path d="M13.23.96c-1.926.024-5.944.104-7.194.424-.917.246-1.594.985-1.84 1.846-.424 1.662-.418 5.114-.418 5.114s-.006 3.452.418 5.114c.24.923.979 1.6 1.84 1.846 1.656.43 8.247.418 8.247.418s6.584.007 8.246-.418c.923-.246 1.593-.985 1.84-1.846.424-1.662.418-5.114.418-5.114s.068-3.452-.418-5.114c-.247-.923-.979-1.6-1.84-1.846-1.65-.43-8.24-.425-8.24-.425s-.413-.006-1.053 0h-.006Zm44.437.553v13.095h1.71l.192-.843h.055c.185.308.437.542.745.727.307.184.664.246 1.034.246.676 0 1.224-.302 1.532-.979.307-.677.498-1.661.498-3.015V9.267c0-.985-.068-1.785-.19-2.4-.124-.548-.308-.978-.616-1.286-.308-.246-.677-.363-1.17-.363-.362 0-.725.117-1.033.301-.301.185-.621.493-.745.862V1.519h-2.018l.006-.006Zm-30.763.48 2.4 8.554.11 4.13h2.038v-4.13l2.381-8.554H31.76l-.861 3.883c-.246 1.163-.437 1.963-.499 2.456h-.055c-.123-.677-.314-1.477-.498-2.456l-.843-3.883H26.904Zm18.21 0v1.668h2.092v11.015h2.018V3.661h2.092s0-1.668-.055-1.668h-6.148Zm-32.918 3.15 5.477 3.189-5.477 3.132V5.138v.006Zm55.016.056c-1.047 0-1.779.363-2.21.979-.424.609-.609 1.6-.609 3.015v1.594c0 1.354.185 2.4.61 3.015.43.677 1.107.979 2.153.979.862 0 1.465-.185 1.957-.616.431-.43.671-1.04.671-1.901v-.308l-1.785-.129c0 .615-.049.985-.172 1.23-.061.247-.308.382-.615.382a.719.719 0 0 1-.499-.19c-.123-.185-.184-.364-.246-.671-.061-.308-.055-.745-.055-1.36v-.48l3.513-.056V9.07c0-.985-.061-1.71-.246-2.265-.123-.547-.436-.978-.806-1.224-.43-.246-.91-.363-1.649-.363l-.012-.019Zm-31.071.056c-.67 0-1.237.11-1.668.418-.43.246-.738.69-.917 1.305-.184.615-.307 1.397-.307 2.381v1.36c0 .923.061 1.711.246 2.326.123.554.43.997.861 1.305.425.308 1.053.418 1.73.48.732 0 1.28-.172 1.71-.418.425-.247.671-.671.917-1.287.24-.615.302-1.415.302-2.4v-1.36c0-.984-.123-1.766-.302-2.381-.184-.548-.492-.997-.917-1.305-.43-.307-.972-.418-1.649-.418l-.006-.006Zm7.495.055v7.323c-.061.185-.178.296-.363.419a.719.719 0 0 1-.498.19c-.185 0-.357-.061-.419-.246-.061-.184-.11-.43-.11-.861V5.372h-2.093v6.898c0 .862.111 1.47.419 1.902.301.43.744.615 1.36.615.861 0 1.526-.425 1.957-1.286h.055l.19 1.095h1.595V5.372s-2.093 0-2.093-.056V5.31Zm10.653 0v7.323c-.062.185-.179.296-.364.419a.718.718 0 0 1-.498.19c-.184 0-.357-.061-.418-.246a2.513 2.513 0 0 1-.13-.861V5.372h-2.092v6.898c0 .862.13 1.47.437 1.902.308.43.726.615 1.342.615.855 0 1.544-.425 1.975-1.286h.055l.173 1.095h1.612V5.372s-2.092 0-2.092-.056V5.31ZM67.15 6.596c.246 0 .357.068.48.191.123.185.185.363.246.67.062.308.056.745.056 1.36v.672h-1.539v-.671c0-.616 0-1.053.056-1.36 0-.246.067-.493.19-.616.124-.184.314-.246.499-.246h.012Zm-31.07.074c.307 0 .492.11.615.419.117.307.172.8.172 1.476v2.88c0 .677-.05 1.17-.172 1.477-.123.308-.308.419-.616.419-.307 0-.486-.111-.609-.419-.123-.307-.19-.8-.19-1.477v-2.88c0-.676.067-1.169.19-1.476.123-.308.302-.419.61-.419Zm24.418.055c.184 0 .375.062.498.247.123.184.166.412.228.843.062.369.074.929.074 1.667l.055 1.17c0 .677 0 1.224-.055 1.593-.062.37-.117.665-.302.788-.123.185-.307.246-.553.246-.185 0-.314-.049-.499-.11-.123-.062-.24-.179-.363-.364v-5.23c.061-.246.178-.431.363-.616a.752.752 0 0 1 .554-.246v.012Z" stroke="#000" stroke-opacity=".15" stroke-width="1.231"/><path d="M13.23.96c-1.926.024-5.944.104-7.194.424-.917.246-1.594.985-1.84 1.846-.424 1.662-.418 5.114-.418 5.114s-.006 3.452.418 5.114c.24.923.979 1.6 1.84 1.846 1.656.43 8.247.418 8.247.418s6.584.007 8.246-.418c.923-.246 1.593-.985 1.84-1.846.424-1.662.418-5.114.418-5.114s.068-3.452-.418-5.114c-.247-.923-.979-1.6-1.84-1.846-1.65-.43-8.24-.425-8.24-.425s-.413-.006-1.053 0h-.006Zm44.437.553v13.095h1.71l.192-.843h.055c.185.308.437.542.745.727.307.184.664.246 1.034.246.676 0 1.224-.302 1.532-.979.307-.677.498-1.661.498-3.015V9.267c0-.985-.068-1.785-.19-2.4-.124-.548-.308-.978-.616-1.286-.308-.246-.677-.363-1.17-.363-.362 0-.725.117-1.033.301-.301.185-.621.493-.745.862V1.519h-2.018l.006-.006Zm-30.763.48 2.4 8.554.11 4.13h2.038v-4.13l2.381-8.554H31.76l-.861 3.883c-.246 1.163-.437 1.963-.499 2.456h-.055c-.123-.677-.314-1.477-.498-2.456l-.843-3.883H26.904Zm18.21 0v1.668h2.092v11.015h2.018V3.661h2.092s0-1.668-.055-1.668h-6.148Zm-32.918 3.15 5.477 3.189-5.477 3.132V5.138v.006Zm55.016.056c-1.047 0-1.779.363-2.21.979-.424.609-.609 1.6-.609 3.015v1.594c0 1.354.185 2.4.61 3.015.43.677 1.107.979 2.153.979.862 0 1.465-.185 1.957-.616.431-.43.671-1.04.671-1.901v-.308l-1.785-.129c0 .615-.049.985-.172 1.23-.061.247-.308.382-.615.382a.719.719 0 0 1-.499-.19c-.123-.185-.184-.364-.246-.671-.061-.308-.055-.745-.055-1.36v-.48l3.513-.056V9.07c0-.985-.061-1.71-.246-2.265-.123-.547-.436-.978-.806-1.224-.43-.246-.91-.363-1.649-.363l-.012-.019Zm-31.071.056c-.67 0-1.237.11-1.668.418-.43.246-.738.69-.917 1.305-.184.615-.307 1.397-.307 2.381v1.36c0 .923.061 1.711.246 2.326.123.554.43.997.861 1.305.425.308 1.053.418 1.73.48.732 0 1.28-.172 1.71-.418.425-.247.671-.671.917-1.287.24-.615.302-1.415.302-2.4v-1.36c0-.984-.123-1.766-.302-2.381-.184-.548-.492-.997-.917-1.305-.43-.307-.972-.418-1.649-.418l-.006-.006Zm7.495.055v7.323c-.061.185-.178.296-.363.419a.719.719 0 0 1-.498.19c-.185 0-.357-.061-.419-.246-.061-.184-.11-.43-.11-.861V5.372h-2.093v6.898c0 .862.111 1.47.419 1.902.301.43.744.615 1.36.615.861 0 1.526-.425 1.957-1.286h.055l.19 1.095h1.595V5.372s-2.093 0-2.093-.056V5.31Zm10.653 0v7.323c-.062.185-.179.296-.364.419a.718.718 0 0 1-.498.19c-.184 0-.357-.061-.418-.246a2.513 2.513 0 0 1-.13-.861V5.372h-2.092v6.898c0 .862.13 1.47.437 1.902.308.43.726.615 1.342.615.855 0 1.544-.425 1.975-1.286h.055l.173 1.095h1.612V5.372s-2.092 0-2.092-.056V5.31ZM67.15 6.596c.246 0 .357.068.48.191.123.185.185.363.246.67.062.308.056.745.056 1.36v.672h-1.539v-.671c0-.616 0-1.053.056-1.36 0-.246.067-.493.19-.616.124-.184.314-.246.499-.246h.012Zm-31.07.074c.307 0 .492.11.615.419.117.307.172.8.172 1.476v2.88c0 .677-.05 1.17-.172 1.477-.123.308-.308.419-.616.419-.307 0-.486-.111-.609-.419-.123-.307-.19-.8-.19-1.477v-2.88c0-.676.067-1.169.19-1.476.123-.308.302-.419.61-.419Zm24.418.055c.184 0 .375.062.498.247.123.184.166.412.228.843.062.369.074.929.074 1.667l.055 1.17c0 .677 0 1.224-.055 1.593-.062.37-.117.665-.302.788-.123.185-.307.246-.553.246-.185 0-.314-.049-.499-.11-.123-.062-.24-.179-.363-.364v-5.23c.061-.246.178-.431.363-.616a.752.752 0 0 1 .554-.246v.012Z"/></g><defs><clipPath id="clip0_12_212"><path fill="#fff" transform="translate(.812 .35)" d="M0 0h72v16H0z"/></clipPath></defs></svg>