<svg width="30" height="33" fill="none" xmlns="http://www.w3.org/2000/svg"><g clip-path="url('#clip0_12_308')" fill="#EA1821"><path opacity=".3" d="M3.663 7.581h5.804v5.803H3.663V7.581ZM18.172 22.09h5.803v5.803h-5.803V22.09Zm-14.509 0h5.804v5.803H3.663V22.09ZM20.58 6.885l-4.106 4.091 4.106 4.106 4.106-4.106-4.106-4.091Z"/><path d="m20.58 2.78-8.212 8.196 8.212 8.212 8.211-8.212L20.58 2.78Zm-4.106 8.196 4.106-4.105 4.106 4.105-4.106 4.106-4.106-4.106ZM.762 4.68v11.606h11.606V4.68H.762Zm8.705 8.705H3.663V7.58h5.804v5.804ZM.762 30.795h11.606V19.187H.762v11.606Zm2.901-8.705h5.804v5.803H3.663V22.09Zm11.607-2.902v11.606h11.606V19.188H15.27Zm8.705 8.705h-5.803V22.09h5.803v5.803Z"/></g><defs><clipPath id="clip0_12_308"><path fill="#fff" transform="translate(.762 .787)" d="M0 0h28.891v32H0z"/></clipPath></defs></svg>