<svg width="30" height="33" fill="none" xmlns="http://www.w3.org/2000/svg"><g clip-path="url('#clip0_12_360')" fill="#EA1821"><path d="M24.98.787H10.42c-1.6 0-2.895 1.31-2.895 2.91h14.546c1.6 0 2.909 1.308 2.909 2.908v18.91l2.909 1.454V3.696c0-1.6-1.31-2.909-2.91-2.909ZM19.16 6.605H4.617c-1.6 0-2.909 1.31-2.909 2.91v23.272l10.182-4.363 10.182 4.363V9.514c0-1.6-1.31-2.909-2.91-2.909Zm0 21.775-6.123-2.633-1.15-.494-1.148.494-6.124 2.633V9.514h14.546V28.38Z"/><path opacity=".3" d="m4.616 28.38 7.273-3.128 7.273 3.127V9.514H4.616v18.865Z"/></g><defs><clipPath id="clip0_12_360"><path fill="#fff" transform="translate(.762 .787)" d="M0 0h28.891v32H0z"/></clipPath></defs></svg>