<svg width="30" height="30" fill="none" xmlns="http://www.w3.org/2000/svg"><g clip-path="url('#clip0_12_378')" fill="#EA1821"><path opacity=".3" d="M3.388 10.16v13.015a13.511 13.511 0 0 1 4.596-.814c1.563 0 3.1.275 4.597.814V10.174a11.799 11.799 0 0 0-4.597-.945 11.69 11.69 0 0 0-4.596.932Z"/><path d="m24.4 2.006-6.566 6.566v12.475l6.566-5.909V2.006Z"/><path d="M28.956 8.178a13.877 13.877 0 0 0-1.93-.8v15.797a13.509 13.509 0 0 0-4.596-.814c-2.495 0-4.964.71-7.223 2.075V8.546a14.45 14.45 0 0 0-7.223-1.943c-2.35 0-4.57.577-6.526 1.575-.434.21-.696.67-.696 1.156v15.864c0 .761.617 1.3 1.313 1.3.21 0 .42-.053.63-.158 1.59-.827 3.375-1.353 5.28-1.353 2.718 0 5.226 1.077 7.222 2.627 1.996-1.55 4.504-2.627 7.223-2.627 1.904 0 3.69.526 5.279 1.366.21.105.42.158.63.158.683 0 1.313-.539 1.313-1.3V9.334c0-.486-.262-.945-.696-1.156ZM12.581 23.175a13.509 13.509 0 0 0-4.597-.814c-1.562 0-3.099.276-4.596.814V10.161a11.69 11.69 0 0 1 4.596-.932c1.576 0 3.139.328 4.597.946v13Z"/></g><defs><clipPath id="clip0_12_378"><path fill="#fff" transform="translate(.762 .597)" d="M0 0h28.891v29H0z"/></clipPath></defs></svg>