<svg width="49" height="65" fill="none" xmlns="http://www.w3.org/2000/svg"><g clip-path="url('#clip0_12_412')" fill="#EA1821"><path opacity=".3" d="M5.657 16.648h9.79v9.79h-9.79v-9.79Zm24.475 24.475h9.79v9.79h-9.79v-9.79Zm-24.475 0h9.79v9.79h-9.79v-9.79Zm28.538-25.65-6.927 6.902 6.927 6.926 6.926-6.926-6.926-6.902Z"/><path d="M34.195 8.547 20.342 22.375l13.853 13.853 13.853-13.853L34.195 8.547Zm-6.927 13.828 6.927-6.926 6.926 6.926-6.926 6.927-6.927-6.927ZM.762 11.753v19.58h19.58v-19.58H.762Zm14.685 14.685h-9.79v-9.79h9.79v9.79ZM.762 55.808h19.58v-19.58H.762v19.58Zm4.895-14.685h9.79v9.79h-9.79v-9.79Zm19.58-4.895v19.58h19.58v-19.58h-19.58Zm14.685 14.685h-9.79v-9.79h9.79v9.79Z"/></g><defs><clipPath id="clip0_12_412"><path fill="#fff" transform="translate(.762 .178)" d="M0 0h48v64H0z"/></clipPath></defs></svg>