<svg width="49" height="65" fill="none" xmlns="http://www.w3.org/2000/svg"><g clip-path="url('#clip0_12_417')" fill="#EA1821"><path d="M42.916 3.197H16.543c-2.898 0-5.243 2.371-5.243 5.27h26.347c2.898 0 5.27 2.37 5.27 5.269v34.25l5.268 2.635V8.467c0-2.899-2.37-5.27-5.269-5.27ZM32.378 13.736H6.03c-2.898 0-5.27 2.371-5.27 5.27V61.16l18.443-7.904 18.443 7.904V19.005c0-2.898-2.371-5.27-5.27-5.27Zm0 39.44-11.092-4.768-2.082-.896-2.081.896L6.03 53.177V19.005h26.346v34.172Z"/><path opacity=".3" d="m6.03 53.175 13.174-5.664 13.173 5.664V19.004H6.031v34.171Z"/></g><defs><clipPath id="clip0_12_417"><path fill="#fff" transform="translate(.762 .179)" d="M0 0h48v64H0z"/></clipPath></defs></svg>